<?xml version="1.0"?>
<svg xmlns="http://www.w3.org/2000/svg" xmlns:xlink="http://www.w3.org/1999/xlink" version="1.1" id="Capa_1" x="0px" y="0px" width="512px" height="512px" viewBox="0 0 29.084 29.084" style="enable-background:new 0 0 29.084 29.084;" xml:space="preserve" class=""><g><g>
	<path d="M7.866,9.488c-0.153,0.155-0.25,0.28-0.303,0.368c-0.26,0.447-0.275,0.953-0.041,1.49c0.236,0.543,0.432,0.926,0.596,1.17   c0.24,0.416,0.568,0.8,0.955,1.177l6.399,6.393c0.438,0.396,0.836,0.688,1.197,0.898c0.067,0.036,0.223,0.107,0.461,0.213   c0.241,0.105,0.6,0.271,1.078,0.483c0.475,0.215,0.973,0.026,1.477-0.546l7.07,7.031c-0.529,0.354-1.146,0.582-1.854,0.699   c-0.702,0.104-1.597,0.125-2.664,0.053c-1.077-0.063-2.03-0.194-2.88-0.399c-0.854-0.194-1.639-0.502-2.358-0.914   c-1.542-0.875-3.085-1.854-4.625-2.942c-1.539-1.094-3.014-2.33-4.407-3.729c-1.94-1.914-3.513-3.735-4.719-5.47   c-1.199-1.736-2.021-3.33-2.458-4.777c-1.058-3.629-1.051-6.379,0.006-8.233L7.866,9.488z M21.637,19.213   c0.291-0.342,0.67-0.373,1.146-0.104c0.226,0.134,0.396,0.255,0.512,0.369l5.14,5.058c0.474,0.428,0.691,0.725,0.643,0.916   c-0.044,0.182-0.168,0.448-0.364,0.797l-1.211,1.176l-7.064-7.043L21.637,19.213z M2.929,0.292   c0.147-0.158,0.323-0.203,0.526-0.144c0.099-0.016,0.224,0.029,0.379,0.125c0.181,0.101,0.302,0.183,0.349,0.255l5.506,5.43   c0.258,0.289,0.4,0.565,0.443,0.809c0.041,0.252-0.021,0.437-0.193,0.58L8.754,8.56L1.62,1.565L2.929,0.292z" data-original="#000000" class="active-path" data-old_color="#ffffff" fill="#ffffff"/>
</g></g> </svg>
